<?xml version="1.0" encoding="UTF-8"?>
<svg width="335px" height="140px" viewBox="0 0 335 140" version="1.1" xmlns="http://www.w3.org/2000/svg" xmlns:xlink="http://www.w3.org/1999/xlink">
    <!-- Generator: Sketch 54.1 (76490) - https://sketchapp.com -->
    <title>Artboard Copy</title>
    <desc>Created with Sketch.</desc>
    <g id="Artboard-Copy" stroke="none" stroke-width="1" fill="none" fill-rule="evenodd">
        <path d="M247.944948,43.8195189 L246.756632,43.8195189 L246.525017,43.8339519 C242.855601,44.2954639 239.589622,46.1525086 237.328454,49.0631615 L228.074502,60.9765636 C227.603711,61.5827491 227.051821,61.9167698 226.520206,61.9167698 C225.988591,61.9167698 225.436701,61.5827491 224.966598,60.9772509 L215.724674,49.0631615 C213.464192,46.1525086 210.197869,44.2954639 206.527766,43.8339519 L205.761787,43.832921 C200.474502,43.8257045 196.184124,48.1095533 196.184124,53.3971821 L196.184124,94.6346392 C196.184124,95.318488 196.738763,95.8727835 197.422612,95.8727835 L206.915052,95.8727835 C207.5989,95.8727835 208.15354,95.318488 208.15354,94.6346392 L208.15354,60.2150515 C208.15354,59.3239863 209.281375,58.9373883 209.827766,59.641512 L216.166942,67.8098969 C218.769691,71.1638488 222.542199,73.0885911 226.517457,73.0899656 L226.520893,73.0899656 C230.496495,73.0899656 234.271065,71.165567 236.877251,67.8102405 L243.225361,59.6380756 C243.771753,58.9342955 244.899588,59.3208935 244.899588,60.2119588 L244.899588,94.6346392 C244.899588,95.318488 245.453883,95.8727835 246.137732,95.8727835 L255.630859,95.8727835 C256.314364,95.8727835 256.869003,95.318488 256.869003,94.6346392 L256.869003,52.7435739 C256.869003,47.8147079 252.873471,43.8195189 247.944948,43.8195189" id="Fill-1" fill="#FFFFFF"></path>
        <path d="M295.941821,61.019622 C295.941821,63.5113746 294.935292,63.9711684 294.507113,64.166701 C293.344914,64.6965979 290.604708,65.0697938 287.55488,65.1179038 L276.171718,65.1179038 L276.171718,59.1419588 C276.171718,56.6539863 277.177904,56.1941924 277.607457,55.9983162 C278.766564,55.4691065 281.506426,55.0959107 284.558316,55.0478007 L287.52567,55.0471134 C290.603677,55.0959107 293.344227,55.4691065 294.505739,55.9979725 C294.935292,56.1941924 295.941821,56.6539863 295.941821,59.1419588 L295.941821,61.019622 Z M300.403677,45.9660137 C297.666564,44.7151546 293.334605,43.9574227 288.491649,43.8873196 L285.460034,43.8876632 C280.64354,43.95811 276.31433,44.7158419 273.583402,45.9660137 C268.102646,48.4711684 265.272062,53.0381787 265.150412,59.534055 L265.138729,59.534055 L265.138729,59.9673883 L265.138729,61.1849141 L265.138729,79.019622 L265.138729,80.1680756 L265.138729,81.0996907 L265.164158,81.0996907 C265.418454,87.3347423 268.24354,91.7326804 273.583746,94.1718557 C279.711237,96.9732302 292.671718,96.9732302 298.797491,94.1718557 C303.072405,92.2189347 305.754536,88.9952234 306.77,84.5897251 L306.902646,84.0141237 C307.0511,83.3697938 306.667251,82.7227148 306.030825,82.5440206 L297.19268,80.077354 C296.506426,79.8845704 295.799553,80.3096564 295.648007,81.0062199 C295.648007,81.0062199 294.991306,83.5512371 293.409175,84.2048454 C290.577216,85.3746048 281.331856,85.4124055 278.54457,84.1378351 C278.115017,83.9416151 277.108488,83.4814777 277.108488,80.9935052 L277.108488,76.2787285 L288.518454,76.2787285 C293.334605,76.2093127 297.666564,75.4515808 300.404021,74.1993471 C305.726701,71.7642955 308.551443,67.385945 308.821203,61.1849141 L308.848007,61.1849141 L308.848007,60.1941924 L308.848007,59.9673883 L308.848007,59.534055 L308.836323,59.534055 C308.714674,53.0405842 305.884433,48.4735739 300.403677,45.9660137 L300.403677,45.9660137 Z" id="Fill-3" fill="#FFFFFF"></path>
        <path d="M175.944777,81.5792784 C175.944777,84.0669072 174.938247,84.5270447 174.509038,84.722921 C173.349931,85.2521306 170.610069,85.1576289 167.557835,85.2060825 L164.590481,85.2064261 C161.512474,85.1576289 158.771924,84.784433 157.610756,84.255567 C157.180859,84.0593471 156.174674,83.5992096 156.174674,81.1115808 L156.174674,79.2339175 C156.174674,76.7421649 157.180859,76.2820275 157.609038,76.0868385 C158.771237,75.5569416 161.511787,75.1837457 164.561615,75.1356357 L175.944777,75.1356357 L175.944777,81.5792784 Z M179.469519,46.0816838 C173.342027,43.2799656 160.381203,43.2799656 154.255773,46.0816838 C149.980515,48.0346048 147.298385,51.2583162 146.283265,55.6638144 L146.150619,56.2394158 C146.002165,56.8837457 146.386014,57.5308247 147.022096,57.7095189 L155.860584,60.1758419 C156.546838,60.3686254 157.253711,59.9438832 157.405258,59.2473196 C157.405258,59.2473196 158.061615,56.7019588 159.643746,56.0486942 C162.476048,54.8789347 171.721065,54.841134 174.508694,56.1157045 C174.938247,56.3119244 175.944777,56.7720619 175.944777,59.2600344 L175.944777,63.974811 L164.534467,63.974811 C159.71866,64.0442268 155.386701,64.8019588 152.6489,66.0541924 C147.326564,68.489244 144.501478,72.8672509 144.231718,79.0682818 L144.205258,79.0682818 L144.205258,80.0593471 L144.205258,80.2861512 L144.205258,80.7194845 L144.216942,80.7194845 C144.338247,87.213299 147.168832,91.7799656 152.649244,94.2871821 C155.386701,95.5387285 159.71866,96.2964605 164.561615,96.3665636 L167.59323,96.3658763 C172.409381,96.2954296 176.738591,96.0053952 179.469863,94.7552234 C184.950619,92.2500687 187.780859,87.6830584 187.902509,81.1871821 L187.914192,81.1871821 L187.914192,80.7538488 L187.914192,79.0682818 L187.914192,61.2339175 L187.914192,60.0854639 L187.914192,59.1538488 L187.889107,59.1538488 C187.634811,52.9187973 184.809725,48.5208591 179.469519,46.0816838 L179.469519,46.0816838 Z" id="Fill-5" fill="#FFFFFF"></path>
        <path d="M124.668385,51.4216151 L124.668385,51.4363918 L110.734021,37.5944674 C108.906186,35.7790034 106.482818,34.9257388 104.087973,35.0147423 C101.917182,35.0958419 99.7707904,35.9491065 98.114433,37.5944674 L83.1587629,52.4511684 C81.4175258,54.1810653 79.1343643,55.0460137 76.8512027,55.046701 C74.5680412,55.0460137 72.2848797,54.1810653 70.543299,52.4511684 L55.5879725,37.5944674 C53.9316151,35.9491065 51.7848797,35.0958419 49.614433,35.0147423 C47.2195876,34.9257388 44.7958763,35.7790034 42.9680412,37.5944674 L29.0340206,51.4363918 L29.0340206,51.4216151 C27.1601375,53.2903436 26,55.8752234 26,58.7308935 C26,61.3398282 26.9683849,63.722646 28.5646048,65.5398282 C28.5831615,65.561134 70.543299,107.24189 70.543299,107.24189 C72.2848797,108.971443 74.5680412,109.836735 76.8512027,109.837079 C79.1343643,109.836735 81.4175258,108.971443 83.1587629,107.24189 C83.1587629,107.24189 125.119244,65.561134 125.137801,65.5398282 C126.734021,63.722646 127.702062,61.3398282 127.702062,58.7308935 C127.702062,55.8752234 126.542268,53.2903436 124.668385,51.4216151" id="Fill-7" fill="#FFFFFF"></path>
        <path d="M70.5409622,52.4512027 C74.0251546,55.9120275 79.676701,55.9120275 83.1605498,52.4512027 L98.1162199,37.5945017 C99.7725773,35.9491409 101.919313,35.0958763 104.089416,35.0147766 L104.089416,35 L49.6124399,35 L49.6124399,35.0147766 C51.7835739,35.095189 53.9313402,35.9487973 55.5904467,37.5945017 L70.5409622,52.4512027 Z" id="Fill-9" fill="#FFFFFF" opacity="0.466424851"></path>
    </g>
</svg>