<?xml version="1.0" encoding="UTF-8"?>
<svg width="41px" height="33px" viewBox="0 0 41 33" version="1.1" xmlns="http://www.w3.org/2000/svg" xmlns:xlink="http://www.w3.org/1999/xlink">
    <!-- Generator: Sketch 53 (72520) - https://sketchapp.com -->
    <title>Favicon@2x</title>
    <desc>Created with Sketch.</desc>
    <defs>
        <path d="M29.4744538,0.235523437 C28.6553193,0.266296875 27.8448768,0.593835937 27.2193613,1.22545312 L27.2193613,1.22545312 L21.5747367,6.92585156 C20.917451,7.58976562 20.0554566,7.92157031 19.1940616,7.921875 L19.1940616,7.921875 C18.3320672,7.92157031 17.4700728,7.58976562 16.8130868,6.92585156 L16.8130868,6.92585156 L11.1678627,1.22545312 C10.5426471,0.593835937 9.7325042,0.266296875 8.91336975,0.235523437 L8.91336975,0.235523437 C8.00941457,0.20109375 7.09436975,0.528632812 6.40471429,1.22545312 L6.40471429,1.22545312 L1.14492997,6.53646094 L1.14492997,6.53097656 C0.437890756,7.24790625 0,8.23966406 0,9.33532031 L0,9.33532031 C0,10.3365234 0.365358543,11.2508906 0.967795518,11.9480156 L0.967795518,11.9480156 C0.974988796,11.9559375 16.8130868,27.9492891 16.8130868,27.9492891 L16.8130868,27.9492891 C17.4700728,28.6132031 18.3320672,28.9450078 19.1940616,28.9453125 L19.1940616,28.9453125 C20.0554566,28.9450078 20.917451,28.6132031 21.5747367,27.9492891 L21.5747367,27.9492891 C21.5747367,27.9492891 37.4128347,11.9559375 37.4197283,11.9480156 L37.4197283,11.9480156 C38.0221653,11.2508906 38.3875238,10.3365234 38.3875238,9.33532031 L38.3875238,9.33532031 C38.3875238,8.23966406 37.9496331,7.24790625 37.2425938,6.53097656 L37.2425938,6.53097656 L37.2425938,6.53646094 L31.9831092,1.22545312 C31.3258235,0.561539063 30.4644286,0.233085938 29.6030336,0.233085938 L29.6030336,0.233085938 C29.5601737,0.233085938 29.5173137,0.233695312 29.4744538,0.235523437" id="path-1"></path>
        <linearGradient x1="50%" y1="0%" x2="50%" y2="100%" id="linearGradient-3">
            <stop stop-color="#F27076" offset="0%"></stop>
            <stop stop-color="#ED0059" offset="100%"></stop>
        </linearGradient>
        <polygon id="path-4" points="0.220863585 0.229734375 20.7831465 0.229734375 20.7831465 7.92172266 0.220863585 7.92172266"></polygon>
    </defs>
    <g id="Favicon" stroke="none" stroke-width="1" fill="none" fill-rule="evenodd">
        <g id="Group-14" transform="translate(1.000000, 2.000000)">
            <g id="Group-10" transform="translate(0.000000, 0.074953)">
                <mask id="mask-2" fill="white">
                    <use xlink:href="#path-1"></use>
                </mask>
                <g id="Clip-9"></g>
                <path d="M29.4744538,0.235523437 C28.6553193,0.266296875 27.8448768,0.593835937 27.2193613,1.22545312 L27.2193613,1.22545312 L21.5747367,6.92585156 C20.917451,7.58976562 20.0554566,7.92157031 19.1940616,7.921875 L19.1940616,7.921875 C18.3320672,7.92157031 17.4700728,7.58976562 16.8130868,6.92585156 L16.8130868,6.92585156 L11.1678627,1.22545312 C10.5426471,0.593835937 9.7325042,0.266296875 8.91336975,0.235523437 L8.91336975,0.235523437 C8.00941457,0.20109375 7.09436975,0.528632812 6.40471429,1.22545312 L6.40471429,1.22545312 L1.14492997,6.53646094 L1.14492997,6.53097656 C0.437890756,7.24790625 0,8.23966406 0,9.33532031 L0,9.33532031 C0,10.3365234 0.365358543,11.2508906 0.967795518,11.9480156 L0.967795518,11.9480156 C0.974988796,11.9559375 16.8130868,27.9492891 16.8130868,27.9492891 L16.8130868,27.9492891 C17.4700728,28.6132031 18.3320672,28.9450078 19.1940616,28.9453125 L19.1940616,28.9453125 C20.0554566,28.9450078 20.917451,28.6132031 21.5747367,27.9492891 L21.5747367,27.9492891 C21.5747367,27.9492891 37.4128347,11.9559375 37.4197283,11.9480156 L37.4197283,11.9480156 C38.0221653,11.2508906 38.3875238,10.3365234 38.3875238,9.33532031 L38.3875238,9.33532031 C38.3875238,8.23966406 37.9496331,7.24790625 37.2425938,6.53097656 L37.2425938,6.53097656 L37.2425938,6.53646094 L31.9831092,1.22545312 C31.3258235,0.561539063 30.4644286,0.233085938 29.6030336,0.233085938 L29.6030336,0.233085938 C29.5601737,0.233085938 29.5173137,0.233695312 29.4744538,0.235523437" id="Fill-8" fill="url(#linearGradient-3)" mask="url(#mask-2)"></path>
            </g>
            <g id="Group-13" transform="translate(8.691877, 0.074953)">
                <mask id="mask-5" fill="white">
                    <use xlink:href="#path-4"></use>
                </mask>
                <g id="Clip-12"></g>
                <path d="M8.12028095,6.92585156 C9.43545182,8.25367969 11.5685583,8.25367969 12.8837291,6.92585156 L18.5286535,1.22545312 C19.1538692,0.593835937 19.964012,0.266601562 20.7831465,0.235523437 L20.7831465,0.229734375 L0.220863585,0.229734375 L0.220863585,0.235523437 C1.04029776,0.266296875 1.85074034,0.59353125 2.4771549,1.22545312 L8.12028095,6.92585156 Z" id="Fill-11" fill="#170085" mask="url(#mask-5)"></path>
            </g>
        </g>
    </g>
</svg>